# xmcd
#
# Track frame offsets: 
#        200
#        16025
#        32600
#        45725
#        61325
#        86000
#        106550
#        121625
#        140150
#        162050
#        178550
#        201125
#
# Disc length: 2990 seconds
#
# Revision: 3
# Processed by: cddbd v1.5.2PL0 Copyright (c) Steve Scherf et al.
# Submitted via: ExactAudioCopy v1.1
#
DISCID=8d0bac0c
DTITLE=HANS THEESSINK - Call Me
DYEAR=1992
DGENRE=Blues
TTITLE0=Late Last Night
TTITLE1=Call Me
TTITLE2=Mabellene
TTITLE3=Lonely Days and Lonely Nights
TTITLE4=Soul Of Song
TTITLE5=Ain't Got No Home
TTITLE6=Rock The Boat
TTITLE7=New Orleans
TTITLE8=The Planet
TTITLE9=Bluesdoctor
TTITLE10=Cuckoo
TTITLE11=Sail On
EXTD=YEAR: 1992
EXTT0=
EXTT1=
EXTT2=
EXTT3=
EXTT4=
EXTT5=
EXTT6=
EXTT7=
EXTT8=
EXTT9=
EXTT10=
EXTT11=
PLAYORDER=
